# 3ds Max Wavefront OBJ Exporter v0.99 - (c)2007 guruware
# File Created: 13.01.2022 20:52:37

mtllib race_side_pusher_2.mtl

#
# object Object008
#

v  -774.6172 164.1750 -691.1406
v  -776.6031 164.1750 -629.5623
v  -776.6031 252.5096 -629.5623
v  -774.6172 252.5096 -691.1406
v  -621.1619 164.1750 -691.0466
v  -623.1479 164.1750 -629.4683
v  -623.1479 252.5096 -629.4683
v  -621.1619 252.5096 -691.0466
# 8 vertices

vn -0.9999 0.0000 -0.0101
vn 0.0000 -1.0000 -0.0000
vn -0.0020 0.0000 1.0000
vn 0.0000 1.0000 -0.0000
vn 0.0020 0.0000 -1.0000
vn 0.9999 0.0000 0.0101
# 6 vertex normals

vt 1.0000 1.0000 0.0000
vt 0.0000 1.0000 0.0000
# 2 texture coords

o Object008
g Object008
usemtl wire_225198087
s off
f 1/1/1 2/2/1 3/2/1 
f 3/2/1 4/1/1 1/1/1 
f 5/1/2 6/2/2 2/2/2 
f 2/2/2 1/1/2 5/1/2 
f 6/2/3 7/2/3 3/2/3 
f 3/2/3 2/2/3 6/2/3 
f 7/2/4 8/1/4 4/1/4 
f 4/1/4 3/2/4 7/2/4 
f 8/1/5 5/1/5 1/1/5 
f 1/1/5 4/1/5 8/1/5 
s 1
f 7/2/6 6/2/6 5/1/6 
f 5/1/6 8/1/6 7/2/6 
# 12 faces

