# 3ds Max Wavefront OBJ Exporter v0.99 - (c)2007 guruware
# File Created: 13.01.2022 20:55:15

mtllib race_spin_plates.mtl

#
# object molino
#

v  -1.8340 37.0448 27.6648
v  -1.4732 -36.5725 28.3072
v  1.5399 -36.5576 28.3229
v  1.1792 37.0597 27.6806
v  1.4734 36.5726 -28.3073
v  1.8342 -37.0448 -27.6649
v  -1.1790 -37.0597 -27.6806
v  -1.5398 36.5577 -28.3230
v  1.2874 36.8797 6.9906
v  -1.7257 36.8648 6.9752
v  -1.3649 -36.7525 7.6175
v  1.6483 -36.7377 7.6331
v  -1.6489 36.7377 -7.6333
v  1.3644 36.7526 -7.6175
v  1.7252 -36.8647 -6.9751
v  -1.2881 -36.8797 -6.9909
v  -28.1670 36.6571 -1.9735
v  -27.8062 -36.9602 -1.3312
v  -27.8221 -36.9340 1.6820
v  -28.1829 36.6833 1.0395
v  27.8062 36.9603 1.3311
v  28.1670 -36.6571 1.9734
v  28.1828 -36.6833 -1.0396
v  27.8219 36.9340 -1.6819
v  -7.4926 36.7857 1.1471
v  -7.4769 36.7594 -1.8659
v  -7.1160 -36.8579 -1.2237
v  -7.1317 -36.8317 1.7894
v  7.1318 36.8317 -1.7903
v  7.1159 36.8579 1.2231
v  7.4767 -36.7594 1.8654
v  7.4926 -36.7856 -1.1479
# 32 vertices

vn -0.0053 0.0087 0.9999
vn 0.0053 -0.0087 -0.9999
vn -0.0049 0.9999 -0.0087
vn -1.0000 -0.0049 -0.0052
vn 0.0049 -0.9999 0.0087
vn 1.0000 0.0049 0.0052
vn 0.0052 -0.0087 -0.9999
vn -1.0000 -0.0049 -0.0053
vn -0.0052 0.0087 0.9999
vn 1.0000 0.0049 0.0051
# 10 vertex normals

vt 0.0000 1.0000 1.0000
vt 0.0000 0.0000 1.0000
vt 0.1250 0.0000 1.0000
vt 0.1250 1.0000 1.0000
vt 0.5000 1.0000 1.0000
vt 0.5000 0.0000 1.0000
vt 0.6250 0.0000 1.0000
vt 0.6250 1.0000 1.0000
vt 0.1161 0.0000 0.4142
vt -0.1250 1.0000 1.0000
vt 0.2197 1.0000 -0.4142
vt 0.1250 1.0000 -1.0000
vt 0.2500 1.0000 -1.0000
# 13 texture coords

o molino
g molino
usemtl wire_154215229
s 2
f 1/1/1 2/2/1 3/3/1 
f 3/3/1 4/4/1 1/1/1 
f 5/5/2 6/6/2 7/7/2 
f 7/7/2 8/8/2 5/5/2 
s off
f 9/4/3 10/1/3 1/1/3 
f 1/1/3 4/4/3 9/4/3 
f 10/1/4 11/2/4 2/2/4 
f 2/2/4 1/1/4 10/1/4 
f 11/2/5 12/3/5 3/3/5 
f 3/3/5 2/2/5 11/2/5 
f 12/3/6 9/4/6 4/4/6 
f 4/4/6 3/3/6 12/3/6 
f 13/8/3 14/5/3 5/5/3 
f 5/5/3 8/8/3 13/8/3 
f 14/5/6 15/6/6 6/6/6 
f 6/6/6 5/5/6 14/5/6 
f 15/6/5 16/7/5 7/7/5 
f 7/7/5 6/6/5 15/6/5 
f 16/7/4 13/8/4 8/8/4 
f 8/8/4 7/7/4 16/7/4 
s 1
f 11/3/7 10/9/7 9/10/7 
f 9/10/7 12/4/7 11/3/7 
f 15/11/1 14/12/1 13/13/1 
f 13/13/1 16/3/1 15/11/1 
s 2
f 17/1/8 18/2/4 19/3/4 
f 19/3/4 20/4/8 17/1/8 
f 21/5/6 22/6/6 23/7/6 
f 23/7/6 24/8/6 21/5/6 
s off
f 25/4/3 26/1/3 17/1/3 
f 17/1/3 20/4/3 25/4/3 
f 26/1/7 27/2/7 18/2/7 
f 18/2/7 17/1/7 26/1/7 
f 27/2/5 28/3/5 19/3/5 
f 19/3/5 18/2/5 27/2/5 
f 28/3/9 25/4/9 20/4/9 
f 20/4/9 19/3/9 28/3/9 
f 29/8/3 30/5/3 21/5/3 
f 21/5/3 24/8/3 29/8/3 
f 30/5/1 31/6/1 22/6/1 
f 22/6/1 21/5/1 30/5/1 
f 31/6/5 32/7/5 23/7/5 
f 23/7/5 22/6/5 31/6/5 
f 32/7/2 29/8/2 24/8/2 
f 24/8/2 23/7/2 32/7/2 
s 1
f 27/3/6 26/9/10 25/10/10 
f 25/10/10 28/4/6 27/3/6 
f 31/11/4 30/12/4 29/13/4 
f 29/13/4 32/3/4 31/11/4 
# 48 faces

