# 3ds Max Wavefront OBJ Exporter v0.99 - (c)2007 guruware
# File Created: 13.01.2022 20:55:38

mtllib race_floating_hammer.mtl

#
# object martillo
#

v  -23.2731 -118.6872 13.9393
v  -23.2731 -118.6872 -13.9393
v  23.2731 -118.6872 -13.9393
v  23.2731 -118.6872 13.9393
v  -5.9367 8.4685 4.7269
v  5.9367 8.4685 4.7269
v  5.9367 8.4685 -4.7269
v  -5.9367 8.4685 -4.7269
v  23.2784 -82.3068 13.9393
v  -23.2677 -82.3068 13.9393
v  23.2784 -82.3068 -13.9393
v  -23.2677 -82.3068 -13.9393
v  5.9420 -75.9771 4.7269
v  -5.9314 -75.9771 4.7269
v  5.9420 -75.9771 -4.7269
v  -5.9314 -75.9771 -4.7269
v  5.9367 -10.3703 4.7269
v  -5.9367 -10.3703 4.7269
v  5.9367 -10.3703 -4.7269
v  -5.9367 -10.3703 -4.7269
v  9.4735 -6.4034 4.7269
v  -9.4968 -6.4034 4.7269
v  9.4735 -6.4034 -4.7269
v  -9.4968 -6.4034 -4.7269
v  9.4735 5.2169 4.7269
v  -9.4968 5.2169 4.7269
v  9.4735 5.2169 -4.7269
v  -9.4968 5.2169 -4.7269
# 28 vertices

vn -0.0000 -1.0000 -0.0000
vn 0.0000 1.0000 -0.0000
vn 0.0000 0.0000 1.0000
vn 1.0000 -0.0001 -0.0000
vn 0.0000 0.0000 -1.0000
vn -1.0000 0.0001 -0.0000
vn 0.0000 0.8242 0.5663
vn 0.3430 0.9393 -0.0000
vn 0.0000 0.8242 -0.5663
vn -0.3430 0.9393 -0.0000
vn 1.0000 0.0001 -0.0000
vn -1.0000 -0.0001 -0.0000
vn 0.7464 -0.6655 -0.0000
vn -0.7442 -0.6679 -0.0000
vn 1.0000 -0.0000 -0.0000
vn -1.0000 0.0000 -0.0000
vn 0.6768 0.7362 -0.0000
vn -0.6744 0.7384 -0.0000
# 18 vertex normals

vt 1.0000 0.0000 0.0000
vt 1.0000 1.0000 0.0000
vt 0.0000 1.0000 0.0000
vt 0.0000 0.0000 0.0000
# 4 texture coords

o martillo
g martillo
usemtl wire_154154229
s 2
f 1/1/1 2/2/1 3/3/1 
f 3/3/1 4/4/1 1/1/1 
s 4
f 5/4/2 6/1/2 7/2/2 
f 7/2/2 8/3/2 5/4/2 
s 8
f 1/4/3 4/1/3 9/2/3 
f 9/2/3 10/3/3 1/4/3 
s 16
f 4/4/4 3/1/4 11/2/4 
f 11/2/4 9/3/4 4/4/4 
s 32
f 3/4/5 2/1/5 12/2/5 
f 12/2/5 11/3/5 3/4/5 
s 64
f 2/4/6 1/1/6 10/2/6 
f 10/2/6 12/3/6 2/4/6 
s off
f 10/4/7 9/1/7 13/1/7 
f 13/1/7 14/4/7 10/4/7 
f 9/1/8 11/2/8 15/2/8 
f 15/2/8 13/1/8 9/1/8 
f 11/2/9 12/3/9 16/3/9 
f 16/3/9 15/2/9 11/2/9 
f 12/3/10 10/4/10 14/4/10 
f 14/4/10 16/3/10 12/3/10 
f 14/4/3 13/1/3 17/1/3 
f 17/1/3 18/4/3 14/4/3 
f 13/1/11 15/2/11 19/2/11 
f 19/2/11 17/1/11 13/1/11 
f 15/2/5 16/3/5 20/3/5 
f 20/3/5 19/2/5 15/2/5 
f 16/3/12 14/4/12 18/4/12 
f 18/4/12 20/3/12 16/3/12 
f 18/4/3 17/1/3 21/1/3 
f 21/1/3 22/4/3 18/4/3 
f 17/1/13 19/2/13 23/2/13 
f 23/2/13 21/1/13 17/1/13 
f 19/2/5 20/3/5 24/3/5 
f 24/3/5 23/2/5 19/2/5 
f 20/3/14 18/4/14 22/4/14 
f 22/4/14 24/3/14 20/3/14 
f 22/4/3 21/1/3 25/1/3 
f 25/1/3 26/4/3 22/4/3 
f 21/1/15 23/2/15 27/2/15 
f 27/2/15 25/1/15 21/1/15 
f 23/2/5 24/3/5 28/3/5 
f 28/3/5 27/2/5 23/2/5 
f 24/3/16 22/4/16 26/4/16 
f 26/4/16 28/3/16 24/3/16 
f 26/4/3 25/1/3 6/1/3 
f 6/1/3 5/4/3 26/4/3 
f 25/1/17 27/2/17 7/2/17 
f 7/2/17 6/1/17 25/1/17 
f 27/2/5 28/3/5 8/3/5 
f 8/3/5 7/2/5 27/2/5 
f 28/3/18 26/4/18 5/4/18 
f 5/4/18 8/3/18 28/3/18 
# 52 faces

